<svg version="1.1" xmlns="http://www.w3.org/2000/svg" viewBox="0 0 1000 200" width="1000" height="200"><rect x="0" y="0" width="100%" height="100%" fill="#ffffff"></rect>
  <!-- svg-source:excalidraw -->
  
  <defs>
    <style>
      @font-face {
        font-family: "Virgil";
        src: url("https://excalidraw.com/Virgil.woff2");
      }
      @font-face {
        font-family: "Cascadia";
        src: url("https://excalidraw.com/Cascadia.woff2");
      }
    </style>
  </defs>
  <rect x="0" y="0" width="1000" height="200" fill="#ffffff"></rect><g stroke-linecap="round" transform="translate(10 10) rotate(0 60 30)"><path d="M70.94 1.37 C80.93 2.07, 92.67 5.75, 100.72 9.36 C108.77 12.96, 116.49 17.86, 119.26 22.99 C122.02 28.12, 120.93 34.86, 117.3 40.13 C113.66 45.4, 106.2 51.44, 97.44 54.6 C88.67 57.77, 75.73 58.9, 64.72 59.11 C53.71 59.33, 40.76 58.32, 31.39 55.91 C22.01 53.5, 13.83 49.08, 8.45 44.65 C3.07 40.22, -1.33 34.71, -0.89 29.31 C-0.46 23.92, 4.51 16.85, 11.06 12.29 C17.61 7.73, 27.25 3.82, 38.41 1.96 C49.56 0.1, 70.57 0.81, 77.98 1.15 C85.38 1.49, 83.22 3.4, 82.86 4 M75.47 0.32 C85.72 1.52, 97.39 5.53, 104.58 9.86 C111.77 14.18, 116.83 21.04, 118.63 26.28 C120.43 31.51, 119.87 36.47, 115.36 41.26 C110.86 46.05, 100.88 51.72, 91.59 55.02 C82.29 58.33, 70.06 61.14, 59.6 61.09 C49.15 61.04, 38.04 57.65, 28.87 54.74 C19.7 51.83, 9.18 48.18, 4.59 43.63 C0.01 39.07, -0.5 33.07, 1.35 27.4 C3.2 21.73, 8.84 14.16, 15.71 9.61 C22.57 5.05, 32.61 1.25, 42.57 0.06 C52.53 -1.13, 69.83 1.96, 75.48 2.47 C81.13 2.99, 76.5 2.73, 76.47 3.14" stroke="none" stroke-width="0" fill="#ffffff"></path><path d="M88.17 3.19 C97.89 4.91, 106.64 9.24, 112.02 14.04 C117.4 18.84, 120.84 26.4, 120.46 32 C120.09 37.59, 116.14 43.24, 109.76 47.62 C103.37 51.99, 92.19 56.37, 82.17 58.25 C72.14 60.13, 60.35 59.85, 49.63 58.88 C38.91 57.91, 25.84 56.04, 17.83 52.44 C9.82 48.83, 4.13 42.74, 1.58 37.24 C-0.98 31.73, -0.93 24.5, 2.48 19.43 C5.89 14.35, 13.37 9.98, 22.04 6.79 C30.7 3.6, 42.92 0.59, 54.46 0.28 C66.01 -0.03, 84.66 3.93, 91.3 4.94 C97.95 5.96, 94.74 6.07, 94.34 6.36 M61.32 1.36 C71.59 1.32, 86.55 3.29, 95.58 6.01 C104.61 8.73, 111.66 12.71, 115.49 17.68 C119.31 22.65, 120.45 30.48, 118.52 35.83 C116.58 41.18, 111.18 45.83, 103.87 49.77 C96.56 53.71, 85.1 58.23, 74.65 59.47 C64.2 60.7, 51.3 59.18, 41.18 57.17 C31.07 55.16, 20.98 51.43, 13.97 47.42 C6.97 43.41, 0.38 38.41, -0.86 33.08 C-2.11 27.76, 1.49 20.5, 6.52 15.48 C11.54 10.46, 20.13 5.31, 29.29 2.94 C38.44 0.57, 55.66 1.81, 61.46 1.26 C67.26 0.71, 63.94 -0.84, 64.1 -0.34" stroke="#1e1e1e" stroke-width="2" fill="none"></path></g><g transform="translate(45 28) rotate(0 25 12)"><text x="25" y="18" font-family="Virgil, Segoe UI Emoji" font-size="20px" fill="#1e1e1e" text-anchor="middle" style="white-space: pre;" direction="ltr">Start</text></g><g stroke-linecap="round" transform="translate(160 10) rotate(0 85 30)"><path d="M-1.51 -1.54 L171.64 0.65 L170.2 60.54 L1.41 61.55" stroke="none" stroke-width="0" fill="#ffffff"></path><path d="M0.98 -0.19 C36.37 -0.61, 70.29 0.27, 168.82 -0.88 M-0.96 0.13 C66.41 1.04, 133.73 0.23, 169.46 -0.68 M171.78 1.07 C169.32 18.96, 170.23 42.4, 169.33 58.91 M169.27 0.13 C169.77 19.11, 169.35 40.27, 170.69 59.95 M170.91 60.13 C116.84 60.99, 65.74 60.38, -1.87 61.67 M169.69 60.98 C126 58.82, 80.62 58.81, -0.17 60.93 M-0.05 59.97 C1.18 35.59, 1.28 12.4, -1.02 1.51 M-0.61 59.22 C0.02 42.13, 1.09 25.45, 0.62 -0.99" stroke="#1e1e1e" stroke-width="2" fill="none"></path></g><g transform="translate(180 22) rotate(0 65 20)"><text x="65" y="-4" font-family="Virgil, Segoe UI Emoji" font-size="18px" fill="#1e1e1e" text-anchor="middle" style="white-space: pre;" direction="ltr">Choose agent</text><text x="65" y="16" font-family="Virgil, Segoe UI Emoji" font-size="18px" fill="#1e1e1e" text-anchor="middle" style="white-space: pre;" direction="ltr">adapter</text></g><g stroke-linecap="round" transform="translate(360 10) rotate(0 65 30)"><path d="M-0.71 1.31 L129.73 0.27 L130.71 61.01 L-0.74 60.61" stroke="none" stroke-width="0" fill="#ffffff"></path><path d="M-1.31 1.74 C27.55 1.22, 52.81 0.31, 131.23 -0.1 M-0.26 0.66 C31.06 -0.62, 61.44 -0.57, 130.3 0.83 M130.85 1.57 C130.96 23.52, 129.26 43.32, 128.11 61.17 M129.87 0.53 C129.43 15.6, 129.06 32.74, 129.5 60.65 M129.01 59.71 C86.98 60.48, 42.53 58.78, 1.8 60.86 M129.8 60.69 C102.66 59.77, 73.89 59.22, -0.29 59.01 M-1.49 59.41 C0.03 38.11, 0.66 15.93, 0.17 -0.91 M-0.17 59.22 C-0.27 47.17, -0.19 34.35, -0.5 0.98" stroke="#1e1e1e" stroke-width="2" fill="none"></path></g><g transform="translate(385 28) rotate(0 40 12)"><text x="40" y="18" font-family="Virgil, Segoe UI Emoji" font-size="20px" fill="#1e1e1e" text-anchor="middle" style="white-space: pre;" direction="ltr">Run init</text></g><g stroke-linecap="round" transform="translate(520 10) rotate(0 95 30)"><path d="M0.09 0.15 L191.82 -0.1 L191.22 61.48 L1.11 59.68" stroke="none" stroke-width="0" fill="#ffffff"></path><path d="M0.41 -0.33 C39.19 -1.51, 76.23 -0.2, 189.64 0.69 M0.44 -0.81 C52.29 0.9, 106.31 1.81, 189.14 0.33 M189.92 -1.93 C189.8 12.08, 189.49 24.24, 190.89 59.43 M190.46 0.93 C190.29 12.09, 189.97 25.21, 190.32 59.36 M191.12 59.28 C118.97 60.18, 51.03 61.4, 1.48 60.06 M189.91 60.41 C120.67 60.68, 49.84 59.59, -0.42 59.1 M1.07 58.84 C-1.12 40.64, 0.05 19.46, 1.35 0.68 M0.26 59.21 C0.64 38.21, -0.27 17.24, 0.39 0.96" stroke="#1e1e1e" stroke-width="2" fill="none"></path></g><g transform="translate(540 22) rotate(0 75 20)"><text x="75" y="-4" font-family="Virgil, Segoe UI Emoji" font-size="18px" fill="#1e1e1e" text-anchor="middle" style="white-space: pre;" direction="ltr">Answer intake</text><text x="75" y="16" font-family="Virgil, Segoe UI Emoji" font-size="18px" fill="#1e1e1e" text-anchor="middle" style="white-space: pre;" direction="ltr">questions</text></g><g stroke-linecap="round" transform="translate(740 10) rotate(0 125 30)"><path d="M0.89 -1.01 L249.92 -0.48 L251.73 61.95 L-1.04 58.74" stroke="none" stroke-width="0" fill="#ffffff"></path><path d="M-1.53 1.3 C50.88 0.23, 103.41 3.1, 248.41 1.2 M-0.7 -0.23 C80.65 -0.99, 161.42 0.45, 249.99 -0.13 M249 -1.43 C251.45 12.64, 248.51 29.16, 249.67 61.69 M249.06 -0.67 C251.16 20.58, 250.88 41.68, 249.13 60.06 M249.37 59.06 C151.08 59.89, 51.84 59.99, 0.94 59.39 M250.02 60.1 C170.38 61.52, 89.48 60.19, -0.44 59.33 M-0.37 58.28 C0.53 43.16, -1.76 22.98, -1.47 -1.73 M0.7 59.21 C-0.45 43.25, -0.35 26.14, -0.73 0.93" stroke="#1e1e1e" stroke-width="2" fill="none"></path></g><g transform="translate(755 18) rotate(0 110 24)"><text x="110" y="-18" font-family="Virgil, Segoe UI Emoji" font-size="16px" fill="#1e1e1e" text-anchor="middle" style="white-space: pre;" direction="ltr">Agent writes specs</text><text x="110" y="-2" font-family="Virgil, Segoe UI Emoji" font-size="16px" fill="#1e1e1e" text-anchor="middle" style="white-space: pre;" direction="ltr">and updates intake</text><text x="110" y="14" font-family="Virgil, Segoe UI Emoji" font-size="16px" fill="#1e1e1e" text-anchor="middle" style="white-space: pre;" direction="ltr">state</text></g><g stroke-linecap="round" transform="translate(10 130) rotate(0 75 30)"><path d="M1.69 1.84 L148.01 -0.86 L148.23 58.41 L0.81 61.81" stroke="none" stroke-width="0" fill="#ffffff"></path><path d="M-0.16 -0.48 C29.73 1.28, 61.64 -0.99, 150.47 -1.74 M-0.15 0.24 C55.66 2.29, 109.88 0.92, 150.82 -0.66 M148.07 -0.93 C150.29 17.2, 148.74 34.08, 148.45 59.95 M149.65 -0.27 C150.02 17.06, 149.78 34.15, 149.95 60.77 M151.33 58.43 C114.35 59.27, 82.81 58.31, 0.82 58.44 M150.14 59.83 C109.49 60.36, 69.37 60.18, -0.66 59.26 M-1.81 61.72 C-0.62 41.69, 1.62 26.51, -0.28 -0.14 M-0.86 59.21 C-0.74 48.29, 0.37 35.03, 0.15 0.91" stroke="#1e1e1e" stroke-width="2" fill="none"></path></g><g transform="translate(35 142) rotate(0 50 20)"><text x="50" y="-4" font-family="Virgil, Segoe UI Emoji" font-size="18px" fill="#1e1e1e" text-anchor="middle" style="white-space: pre;" direction="ltr">Validate</text><text x="50" y="16" font-family="Virgil, Segoe UI Emoji" font-size="18px" fill="#1e1e1e" text-anchor="middle" style="white-space: pre;" direction="ltr">specs</text></g><g stroke-linecap="round" transform="translate(190 130) rotate(0 80 30)"><path d="M-1.51 0.68 L160.1 -1.24 L158.74 58.88 L-1.34 60.87" stroke="none" stroke-width="0" fill="#ffffff"></path><path d="M1.55 1.45 C31.14 -1.01, 64.61 -1.07, 158.88 -0.96 M0.55 0.77 C33.02 0.63, 67.03 0.12, 159.66 0.85 M161.14 -0.43 C157.93 17.76, 161.77 39, 161.23 58.21 M160.25 0.13 C159.68 13.55, 159.49 26.62, 160.76 59.47 M159.44 62 C119.11 58.86, 74.83 60.82, 0.49 61.63 M160.25 59.54 C124.31 61.32, 88.94 60.59, -0.78 59.35 M0.75 61.15 C2.23 44.22, 1.01 30.03, 0.9 1.45 M-0.43 59.2 C0.17 39.33, 0.3 19.93, -0.97 0.89" stroke="#1e1e1e" stroke-width="2" fill="none"></path></g><g transform="translate(210 142) rotate(0 60 20)"><text x="60" y="-4" font-family="Virgil, Segoe UI Emoji" font-size="18px" fill="#1e1e1e" text-anchor="middle" style="white-space: pre;" direction="ltr">Reply</text><text x="60" y="16" font-family="Virgil, Segoe UI Emoji" font-size="18px" fill="#1e1e1e" text-anchor="middle" style="white-space: pre;" direction="ltr">approved</text></g><g stroke-linecap="round" transform="translate(380 130) rotate(0 65 30)"><path d="M-0.71 -0.48 L128.19 -1.62 L129.25 59.35 L0.51 59.94" stroke="none" stroke-width="0" fill="#ffffff"></path><path d="M-0.73 -0.62 C28.36 0.81, 51.22 -1.03, 131.3 -0.17 M-0.75 -0.7 C33.21 -0.9, 65.81 -0.54, 130.5 0.36 M130.22 0.07 C130.78 22.32, 132 39.92, 130.02 60.47 M130.85 0.54 C130.54 22.04, 130.4 43.09, 129.57 60.18 M131.54 61.57 C90.91 58.41, 52.94 59.28, 0.17 60.83 M130.37 59.26 C81.1 59.29, 32.47 58.03, -0.9 59.43 M-0.69 60.59 C-0.12 46.74, -0.81 33.56, -1.91 -0.97 M0.01 59.2 C-0.12 44.37, -0.98 28.82, -0.09 0.86" stroke="#1e1e1e" stroke-width="2" fill="none"></path></g><g transform="translate(395 148) rotate(0 50 12)"><text x="50" y="16" font-family="Virgil, Segoe UI Emoji" font-size="18px" fill="#1e1e1e" text-anchor="middle" style="white-space: pre;" direction="ltr">Pick skills</text></g><g stroke-linecap="round" transform="translate(540 130) rotate(0 105 30)"><path d="M0.08 -1.63 L210.28 -1.99 L209.76 59.82 L-1.63 59" stroke="none" stroke-width="0" fill="#ffffff"></path><path d="M0.87 1.15 C43.96 -1.86, 86.73 -1.53, 209.74 0.54 M-0.04 -0.15 C61.18 0.45, 123.96 1.52, 209.42 -0.12 M209.29 0.58 C208.42 22.88, 211.02 44.84, 208.8 58.74 M209.44 0.94 C211.4 16.53, 211.31 35.56, 210.39 60.88 M209.69 61.01 C142.93 61.83, 73.77 61.63, -0.14 60.02 M210.42 60.86 C141.04 57.84, 72.28 58.01, 0.86 59.57 M1.87 60.03 C-1.27 37.27, -1.42 13.08, -0.73 0.62 M0.44 59.19 C0.79 37.41, 0.94 13.72, 0.79 0.84" stroke="#1e1e1e" stroke-width="2" fill="none"></path></g><g transform="translate(570 142) rotate(0 75 20)"><text x="75" y="-4" font-family="Virgil, Segoe UI Emoji" font-size="18px" fill="#1e1e1e" text-anchor="middle" style="white-space: pre;" direction="ltr">Generate code</text><text x="75" y="16" font-family="Virgil, Segoe UI Emoji" font-size="18px" fill="#1e1e1e" text-anchor="middle" style="white-space: pre;" direction="ltr">under app</text></g><g stroke-linecap="round" transform="translate(780 130) rotate(0 60 30)"><path d="M39.05 1.08 C48.44 -1.02, 62.42 0.13, 72.93 1.23 C83.44 2.32, 94.5 4.07, 102.11 7.62 C109.72 11.18, 116.14 16.98, 118.6 22.55 C121.06 28.11, 120.69 35.92, 116.88 41.01 C113.08 46.09, 104.51 49.84, 95.75 53.06 C87 56.29, 74.92 59.81, 64.33 60.33 C53.74 60.86, 41.52 58.71, 32.22 56.18 C22.92 53.65, 13.77 49.95, 8.52 45.15 C3.27 40.36, 0.07 32.87, 0.71 27.43 C1.34 21.98, 4.88 16.86, 12.33 12.46 C19.78 8.06, 38.86 3.07, 45.4 1.03 C51.95 -1.02, 51.41 -0.33, 51.6 0.19 M33.52 3.8 C42.51 1.37, 58.08 0.19, 69.02 0.51 C79.95 0.82, 91.18 2.44, 99.12 5.69 C107.07 8.93, 113.69 14.67, 116.69 20.01 C119.69 25.34, 120.16 32.49, 117.13 37.7 C114.11 42.91, 106.57 47.65, 98.52 51.28 C90.47 54.91, 79.19 58.52, 68.83 59.48 C58.46 60.44, 46.01 59.01, 36.34 57.04 C26.67 55.07, 16.65 52.32, 10.8 47.66 C4.95 43.01, 1.6 34.82, 1.23 29.09 C0.85 23.36, 2.95 17.45, 8.55 13.28 C14.15 9.11, 30.51 5.46, 34.83 4.06 C39.16 2.65, 34.33 4.42, 34.52 4.87" stroke="none" stroke-width="0" fill="#ffffff"></path><path d="M48.49 0.89 C58.21 -0.22, 71.19 0.79, 81.31 2.84 C91.43 4.89, 102.69 8.79, 109.2 13.18 C115.72 17.58, 119.89 23.84, 120.42 29.2 C120.94 34.56, 117.94 40.61, 112.35 45.34 C106.76 50.07, 96.65 55.15, 86.89 57.6 C77.13 60.05, 64.53 60.85, 53.77 60.05 C43.01 59.24, 30.57 56.27, 22.32 52.77 C14.07 49.27, 7.86 43.93, 4.29 39.05 C0.71 34.17, -1.57 28.75, 0.86 23.49 C3.3 18.24, 10.41 11.4, 18.9 7.51 C27.38 3.62, 45.71 1.19, 51.76 0.15 C57.81 -0.9, 55.22 0.8, 55.19 1.23 M42.96 0.2 C52.46 -1.22, 66.42 0.9, 76.7 2.54 C86.99 4.18, 97.41 5.9, 104.68 10.04 C111.95 14.18, 118.71 21.7, 120.32 27.38 C121.93 33.06, 119 39.6, 114.33 44.15 C109.66 48.7, 101.29 52.03, 92.29 54.69 C83.28 57.34, 71.18 60.08, 60.31 60.07 C49.43 60.07, 36.32 57.7, 27.02 54.65 C17.72 51.6, 8.96 46.78, 4.5 41.77 C0.03 36.77, -1.71 29.72, 0.22 24.61 C2.15 19.49, 8.92 15.09, 16.08 11.07 C23.25 7.04, 38.7 2.21, 43.2 0.45 C47.7 -1.31, 42.48 0.02, 43.08 0.51" stroke="#1e1e1e" stroke-width="2" fill="none"></path></g><g transform="translate(810 148) rotate(0 30 12)"><text x="30" y="18" font-family="Virgil, Segoe UI Emoji" font-size="20px" fill="#1e1e1e" text-anchor="middle" style="white-space: pre;" direction="ltr">Done</text></g><g stroke-linecap="round"><g transform="translate(130 40) rotate(0 15 0)"><path d="M-0.35 0.25 C4.96 0.14, 25.6 0.08, 30.7 -0.09 M1.67 -0.67 C6.98 -0.63, 25.46 1.27, 30.12 1.4" stroke="#1e1e1e" stroke-width="2" fill="none"></path></g><g transform="translate(130 40) rotate(0 15 0)"><path d="M16.01 6.42 C18.52 5.07, 20.58 4.82, 30.52 0.04 M15.22 6.22 C20.59 4.8, 25.96 2.43, 29.38 2.06" stroke="#1e1e1e" stroke-width="2" fill="none"></path></g><g transform="translate(130 40) rotate(0 15 0)"><path d="M16.71 -3.82 C19.13 -3.08, 21.05 -1.23, 30.52 0.04 M15.93 -4.02 C21.04 -1.56, 26.15 -0.05, 29.38 2.06" stroke="#1e1e1e" stroke-width="2" fill="none"></path></g></g><g stroke-linecap="round"><g transform="translate(330 40) rotate(0 15 0)"><path d="M1.09 -0.44 C6.3 -0.41, 25.3 0.83, 30.08 0.92 M0.21 -1.72 C5.36 -2.08, 24.39 -1.24, 29.17 -0.72" stroke="#1e1e1e" stroke-width="2" fill="none"></path></g><g transform="translate(330 40) rotate(0 15 0)"><path d="M14.2 3.51 C18.82 2.14, 20.71 2.72, 30.47 -0.29 M14.53 3.53 C18.11 3.07, 20.64 1.01, 28.75 -0.25" stroke="#1e1e1e" stroke-width="2" fill="none"></path></g><g transform="translate(330 40) rotate(0 15 0)"><path d="M14.91 -6.72 C19.45 -6, 21.19 -3.32, 30.47 -0.29 M15.25 -6.7 C18.77 -5.11, 21.16 -5.12, 28.75 -0.25" stroke="#1e1e1e" stroke-width="2" fill="none"></path></g></g><g stroke-linecap="round"><g transform="translate(490 40) rotate(0 15 0)"><path d="M0.14 -1.13 C5.24 -1.37, 24.6 -0.82, 29.45 -0.47 M-1.25 0.9 C3.75 0.74, 22.72 1.12, 28.22 0.82" stroke="#1e1e1e" stroke-width="2" fill="none"></path></g><g transform="translate(490 40) rotate(0 15 0)"><path d="M12.8 5.48 C16.44 4.12, 21.06 5.29, 27.43 0.04 M14.25 5.73 C17.42 5.4, 19.9 4.06, 28.11 1.1" stroke="#1e1e1e" stroke-width="2" fill="none"></path></g><g transform="translate(490 40) rotate(0 15 0)"><path d="M12.64 -4.78 C16.39 -4.04, 21.05 -0.77, 27.43 0.04 M14.09 -4.53 C17.26 -2.59, 19.78 -1.65, 28.11 1.1" stroke="#1e1e1e" stroke-width="2" fill="none"></path></g></g><g stroke-linecap="round"><g transform="translate(710 40) rotate(0 15 0)"><path d="M-0.82 0.59 C4.18 0.48, 23.5 0.73, 28.83 0.54 M0.95 -0.15 C6.4 -0.11, 25.92 -1.4, 30.93 -1.31" stroke="#1e1e1e" stroke-width="2" fill="none"></path></g><g transform="translate(710 40) rotate(0 15 0)"><path d="M17.72 2.76 C20.46 4.63, 21.88 0.59, 31.05 -0.29 M17.3 4.74 C20.02 3.24, 24.02 1.31, 31.14 -1.21" stroke="#1e1e1e" stroke-width="2" fill="none"></path></g><g transform="translate(710 40) rotate(0 15 0)"><path d="M17.43 -7.49 C20.32 -3.53, 21.81 -5.47, 31.05 -0.29 M17.01 -5.52 C19.85 -4.52, 23.92 -3.96, 31.14 -1.21" stroke="#1e1e1e" stroke-width="2" fill="none"></path></g></g><g stroke-linecap="round"><g transform="translate(865 70) rotate(0 -390 30)"><path d="M0.62 -0.1 C0.92 4.93, 130.61 24.08, 0.61 29.14 C-129.38 34.2, -649.08 24.98, -779.35 30.26 C-909.62 35.54, -780.88 55.93, -781.01 60.82 M-0.51 -1.19 C-0.22 4.05, 129.86 24.75, -0.02 30.23 C-129.89 35.72, -649.56 26.97, -779.77 31.71 C-909.98 36.46, -780.98 54.02, -781.3 58.69" stroke="#1e1e1e" stroke-width="2" fill="none"></path></g><g transform="translate(865 70) rotate(0 -390 30)"><path d="M-796.39 60.46 C-794.26 60.23, -789.81 57.94, -780.28 58.5 M-795.69 59.66 C-791.55 59.74, -788.75 59.96, -780.78 58.6" stroke="#1e1e1e" stroke-width="2" fill="none"></path></g><g transform="translate(865 70) rotate(0 -390 30)"><path d="M-793.53 50.6 C-792.08 52.4, -788.2 52.13, -780.28 58.5 M-792.84 49.8 C-789.53 52.46, -787.48 55.29, -780.78 58.6" stroke="#1e1e1e" stroke-width="2" fill="none"></path></g></g><g stroke-linecap="round"><g transform="translate(160 160) rotate(0 15 0)"><path d="M-0.33 -0.78 C4.86 -0.62, 24.91 -0.17, 29.99 0.15 M1.69 1.42 C6.82 1.87, 24.41 2.11, 29.04 1.77" stroke="#1e1e1e" stroke-width="2" fill="none"></path></g><g transform="translate(160 160) rotate(0 15 0)"><path d="M14.08 7.21 C18.15 6.33, 22.22 3.96, 27.96 0.38 M14.4 6.63 C19.38 5.62, 23.46 4.13, 28.37 1.5" stroke="#1e1e1e" stroke-width="2" fill="none"></path></g><g transform="translate(160 160) rotate(0 15 0)"><path d="M13.85 -3.05 C17.89 -1.83, 22.01 -2.09, 27.96 0.38 M14.16 -3.63 C19.21 -1.7, 23.36 -0.27, 28.37 1.5" stroke="#1e1e1e" stroke-width="2" fill="none"></path></g></g><g stroke-linecap="round"><g transform="translate(350 160) rotate(0 15 0)"><path d="M1.11 0.93 C6.2 1.23, 24.61 1.38, 29.37 1.16 M0.23 0.37 C5.82 0.42, 27 -0.41, 31.75 -0.35" stroke="#1e1e1e" stroke-width="2" fill="none"></path></g><g transform="translate(350 160) rotate(0 15 0)"><path d="M18.91 4.24 C22.09 3.36, 22.99 1.84, 31.58 0.05 M17.35 5.39 C21.91 3.28, 26.03 1.26, 31.4 -0.81" stroke="#1e1e1e" stroke-width="2" fill="none"></path></g><g transform="translate(350 160) rotate(0 15 0)"><path d="M18.72 -6.02 C21.89 -4.8, 22.83 -4.23, 31.58 0.05 M17.16 -4.87 C21.86 -3.83, 26.04 -2.7, 31.4 -0.81" stroke="#1e1e1e" stroke-width="2" fill="none"></path></g></g><g stroke-linecap="round"><g transform="translate(510 160) rotate(0 15 0)"><path d="M0.15 0.25 C5.54 0.28, 26.31 -0.27, 31.15 -0.23 M-1.22 -0.67 C4.2 -0.42, 25.33 1.35, 30.8 1.18" stroke="#1e1e1e" stroke-width="2" fill="none"></path></g><g transform="translate(510 160) rotate(0 15 0)"><path d="M16.85 7.27 C19.18 3.8, 22.96 3.25, 31.53 0.38 M16.4 5.64 C20.73 4.15, 26.47 3.33, 30.77 0.54" stroke="#1e1e1e" stroke-width="2" fill="none"></path></g><g transform="translate(510 160) rotate(0 15 0)"><path d="M17.19 -2.99 C19.42 -4.36, 23.12 -2.8, 31.53 0.38 M16.75 -4.61 C20.92 -2.74, 26.54 -0.19, 30.77 0.54" stroke="#1e1e1e" stroke-width="2" fill="none"></path></g></g><g stroke-linecap="round"><g transform="translate(750 160) rotate(0 15 0)"><path d="M-0.8 -0.44 C4.48 -0.28, 25.22 0.88, 30.52 0.78 M0.98 -1.72 C6.24 -1.87, 24.88 -1.17, 29.85 -0.94" stroke="#1e1e1e" stroke-width="2" fill="none"></path></g><g transform="translate(750 160) rotate(0 15 0)"><path d="M15.01 4.28 C19.46 4.09, 20.06 1.39, 28.49 0.05 M15.69 2.88 C21.11 1.52, 25.4 0.21, 30.13 -0.27" stroke="#1e1e1e" stroke-width="2" fill="none"></path></g><g transform="translate(750 160) rotate(0 15 0)"><path d="M15.42 -5.98 C19.77 -4.07, 20.29 -4.67, 28.49 0.05 M16.1 -7.38 C21.41 -5.14, 25.56 -2.87, 30.13 -0.27" stroke="#1e1e1e" stroke-width="2" fill="none"></path></g></g></svg>