<svg version="1.1" xmlns="http://www.w3.org/2000/svg" viewBox="0 -24 1040 370" width="1040" height="322"><rect x="0" y="-24" width="100%" height="100%" fill="#ffffff"></rect>
  <!-- svg-source:excalidraw -->
  
  <defs>
    <style>
      @font-face {
        font-family: "Virgil";
        src: url("https://excalidraw.com/Virgil.woff2");
      }
      @font-face {
        font-family: "Cascadia";
        src: url("https://excalidraw.com/Cascadia.woff2");
      }
    </style>
  </defs>
  <rect x="0" y="-24" width="1040" height="370" fill="#ffffff"></rect><g stroke-linecap="round" transform="translate(10 30) rotate(0 80 30)"><path d="M1.27 1.28 L160.78 -0.23 L158.13 59.54 L-1.09 59.57" stroke="none" stroke-width="0" fill="#ffffff"></path><path d="M-0.73 -0.88 C33.33 -0.77, 65.94 0.12, 159.52 -0.44 M-0.45 -0.44 C64.69 -1.82, 128.03 -1.41, 159.19 -0.3 M160 0.84 C160.54 20.14, 157.96 42, 158.68 60.05 M160.26 -0.44 C160.02 20.57, 159.71 42.31, 160.81 59.5 M160.39 60.1 C122.45 61.09, 84.97 58.93, -1.56 60.7 M160.35 59.23 C106.65 60.85, 54.59 60.09, 0.96 59.89 M0.09 60.74 C-1.03 44.95, 1.64 29.26, 0.8 -1.18 M0.64 59.14 C0.61 36.57, -0.54 12.49, 0.34 0.44" stroke="#1e1e1e" stroke-width="2" fill="none"></path></g><g transform="translate(30 48) rotate(0 60 12)"><text x="60" y="16" font-family="Virgil, Segoe UI Emoji" font-size="18px" fill="#1e1e1e" text-anchor="middle" style="white-space: pre;" direction="ltr">Need a change</text></g><g stroke-linecap="round" transform="translate(190 30) rotate(0 90 30)"><path d="M-1.93 0.12 L178.87 -0.61 L178.64 60.01 L0.76 58.64" stroke="none" stroke-width="0" fill="#ffffff"></path><path d="M0.98 1.04 C36.79 -3.29, 73.01 -0.19, 181.93 0.34 M0.25 0.09 C43.22 -0.32, 87.5 0.95, 180.03 -0.79 M179.08 1.35 C179.39 24.7, 182.19 46.92, 181.47 58.31 M180.86 -0.04 C180.88 17.05, 180.62 34.78, 179.63 60.21 M178.49 59.67 C130.06 60.61, 80.71 61.36, -1.88 59.9 M180.46 60.94 C128.5 59.81, 78.23 60.5, 0.84 59.98 M-1.35 60.18 C0.62 47.48, -0.17 32.78, 1.98 0.41 M-0.93 59.13 C0.32 41.61, 0.18 21.38, -0.78 0.42" stroke="#1e1e1e" stroke-width="2" fill="none"></path></g><g transform="translate(230 42) rotate(0 50 20)"><text x="50" y="-4" font-family="Virgil, Segoe UI Emoji" font-size="18px" fill="#1e1e1e" text-anchor="middle" style="white-space: pre;" direction="ltr">Update specs</text><text x="50" y="16" font-family="Virgil, Segoe UI Emoji" font-size="18px" fill="#1e1e1e" text-anchor="middle" style="white-space: pre;" direction="ltr">first</text></g><g stroke-linecap="round" transform="translate(390 30) rotate(0 90 30)"><path d="M-1.13 -1.03 L180.97 -0.98 L179.14 60.48 L-1.39 61.7" stroke="none" stroke-width="0" fill="#ffffff"></path><path d="M-1.3 -1.03 C36.15 1.9, 71.89 -0.78, 180.34 1.13 M0.96 0.62 C51.78 -0.25, 103.05 -0.11, 180.87 0.72 M178.15 1.85 C181.03 13.26, 181.22 27.84, 180.25 60.57 M179.45 0.36 C180.55 13.54, 180.33 27.25, 180.44 60.91 M180.6 59.25 C126.48 60.18, 70.05 59.85, 1.79 59.09 M180.57 60.65 C137 60.75, 95.16 60.9, 0.71 60.06 M1.2 59.61 C-0.53 46, -0.78 36.31, -0.83 2 M-0.49 59.13 C-0.77 44.65, 0.1 30.28, 0.1 0.4" stroke="#1e1e1e" stroke-width="2" fill="none"></path></g><g transform="translate(430 42) rotate(0 50 20)"><text x="50" y="-4" font-family="Virgil, Segoe UI Emoji" font-size="18px" fill="#1e1e1e" text-anchor="middle" style="white-space: pre;" direction="ltr">Record spec</text><text x="50" y="16" font-family="Virgil, Segoe UI Emoji" font-size="18px" fill="#1e1e1e" text-anchor="middle" style="white-space: pre;" direction="ltr">history</text></g><g stroke-linecap="round" transform="translate(590 30) rotate(0 80 30)"><path d="M-0.33 1.81 L159.06 -1.36 L159.65 60.95 L0.46 60.77" stroke="none" stroke-width="0" fill="#ffffff"></path><path d="M0.41 0.9 C31.42 -0.54, 66.59 -1.01, 158.76 1.91 M-0.34 -0.85 C51.82 1.32, 103.54 0.31, 159.71 0.22 M161.22 -1.65 C159.87 17.82, 161.44 32.76, 159.03 58.83 M160.05 0.77 C159.41 22.03, 159.23 43.72, 159.26 59.62 M158.71 58.82 C105.59 59.82, 52.78 58.41, 1.46 58.28 M160.68 60.36 C97.25 61.54, 35.61 61.14, 0.59 60.15 M-0.24 59.05 C-1.68 36.53, -1.4 15.84, 0.35 -0.42 M-0.06 59.13 C0.14 37.69, 0.03 15.17, 0.98 0.37" stroke="#1e1e1e" stroke-width="2" fill="none"></path></g><g transform="translate(630 42) rotate(0 40 20)"><text x="40" y="-4" font-family="Virgil, Segoe UI Emoji" font-size="18px" fill="#1e1e1e" text-anchor="middle" style="white-space: pre;" direction="ltr">Validate</text><text x="40" y="16" font-family="Virgil, Segoe UI Emoji" font-size="18px" fill="#1e1e1e" text-anchor="middle" style="white-space: pre;" direction="ltr">specs</text></g><g stroke-linecap="round" transform="translate(10 160) rotate(0 90 50)"><path d="M91.47 0.65 L181.15 49.26 L91.16 101.41 L-1.69 50.83" stroke="none" stroke-width="0" fill="#ffffff" fill-rule="evenodd"></path><path d="M89.13 -1.17 C107.63 11.73, 127.78 19.92, 181.17 49.7 M91.36 -0.32 C124.7 18.61, 156.35 37.28, 180.54 50.73 M180.3 49.85 C154.83 65.28, 127.09 81.28, 92.81 101.09 M180.65 50.17 C154 65.75, 127.67 80.19, 91.07 100.32 M91.81 98.39 C58.87 81.72, 24.86 65.29, 1.13 52.48 M91.8 100.08 C59.5 85.11, 28.77 67.53, 0.47 51.23 M-1.68 49.49 C33.62 33.44, 66.96 12.96, 92.53 1.17 M0.38 50.12 C27.26 37.19, 55.55 21.23, 90.86 0.35" stroke="#1e1e1e" stroke-width="2" fill="none"></path></g><g transform="translate(30 194) rotate(0 70 20)"><text x="70" y="-4" font-family="Virgil, Segoe UI Emoji" font-size="18px" fill="#1e1e1e" text-anchor="middle" style="white-space: pre;" direction="ltr">Re approval</text><text x="70" y="16" font-family="Virgil, Segoe UI Emoji" font-size="18px" fill="#1e1e1e" text-anchor="middle" style="white-space: pre;" direction="ltr">needed</text></g><g stroke-linecap="round" transform="translate(210 180) rotate(0 100 30)"><path d="M1.27 -0.5 L199.24 1.88 L200.67 61.88 L0.16 58.9" stroke="none" stroke-width="0" fill="#ffffff"></path><path d="M-0.14 0.68 C42.19 -1.29, 80.85 -1.32, 199.62 -0.47 M-0.84 0.19 C41.77 1.2, 84.2 1.85, 199.45 -0.69 M199.37 -0.65 C199.16 18.94, 199.5 38.6, 200.59 59.35 M199.24 -0.43 C199.93 13, 199.85 28.66, 200.88 59.03 M199.03 61.77 C119.87 58.95, 42.11 59.32, 0.73 60.6 M200.82 59.81 C142.56 58.03, 84.22 58.5, 0.31 60.28 M0.88 61.93 C-1.18 41.58, 0.17 18.89, -1.28 -1.24 M0.82 59.12 C0.76 45.77, 0.67 32.96, 0.74 0.32" stroke="#1e1e1e" stroke-width="2" fill="none"></path></g><g transform="translate(230 190) rotate(0 80 20)"><text x="80" y="-6" font-family="Virgil, Segoe UI Emoji" font-size="16px" fill="#1e1e1e" text-anchor="middle" style="white-space: pre;" direction="ltr">Ask for approval</text><text x="80" y="14" font-family="Virgil, Segoe UI Emoji" font-size="16px" fill="#1e1e1e" text-anchor="middle" style="white-space: pre;" direction="ltr">again</text></g><g stroke-linecap="round" transform="translate(430 160) rotate(0 80 50)"><path d="M79.07 -1.66 L161.33 52.5 L82.17 98.35 L-1.98 52.96" stroke="none" stroke-width="0" fill="#ffffff" fill-rule="evenodd"></path><path d="M82.56 -1.32 C97.63 9.34, 114.78 21.96, 162 51.27 M80.77 0.74 C101.25 12.27, 120.74 26.82, 160.22 51.74 M158.44 50.85 C132.77 70.45, 101.26 86.39, 80.37 101.61 M159.84 50.97 C131.73 67.69, 102.63 87.28, 80.7 99.73 M82.02 101.54 C64.24 87.68, 46.15 75.8, 0.48 50.86 M80.02 99.5 C61.84 87.54, 41.84 75.6, 0.23 51.4 M-0.56 52.36 C26.35 34.2, 48.92 19.25, 80.9 0.35 M-0.75 50.11 C29.37 32.62, 57.14 14.87, 80.63 0.3" stroke="#1e1e1e" stroke-width="2" fill="none"></path></g><g transform="translate(465 198) rotate(0 45 12)"><text x="45" y="16" font-family="Virgil, Segoe UI Emoji" font-size="18px" fill="#1e1e1e" text-anchor="middle" style="white-space: pre;" direction="ltr">Approved</text></g><g stroke-linecap="round" transform="translate(610 180) rotate(0 100 30)"><path d="M-1.13 1.18 L199.42 1.13 L201.68 58.82 L-0.13 61.03" stroke="none" stroke-width="0" fill="#ffffff"></path><path d="M-0.66 0.55 C41.05 1.44, 82.44 1.79, 200.37 0.95 M0.42 -0.66 C58.64 -0.78, 118.68 -2.18, 199.16 0.22 M201.52 0.35 C199.65 12.06, 198.75 24.43, 198.15 59.88 M200.43 0.37 C199.66 17.98, 199.67 35.6, 200.51 60.44 M199.22 61 C147.44 58.18, 94.57 60.19, 0.14 59.15 M199.22 59.29 C121.52 59.8, 42.03 59.29, 0.09 60.43 M2 60.8 C0.52 42.63, -1.06 25.94, 1.08 1.94 M-0.31 59.11 C-0.62 43.85, -0.68 26.75, 0.51 0.28" stroke="#1e1e1e" stroke-width="2" fill="none"></path></g><g transform="translate(640 190) rotate(0 70 20)"><text x="70" y="-6" font-family="Virgil, Segoe UI Emoji" font-size="16px" fill="#1e1e1e" text-anchor="middle" style="white-space: pre;" direction="ltr">Update code</text><text x="70" y="14" font-family="Virgil, Segoe UI Emoji" font-size="16px" fill="#1e1e1e" text-anchor="middle" style="white-space: pre;" direction="ltr">under app</text></g><g stroke-linecap="round" transform="translate(830 180) rotate(0 100 30)"><path d="M105.76 0.82 C119.88 0.56, 137.14 1.25, 149.87 3.22 C162.6 5.19, 174.01 8.84, 182.15 12.62 C190.29 16.4, 196.34 21.75, 198.7 25.91 C201.06 30.07, 200.45 33.39, 196.3 37.57 C192.15 41.75, 183.57 47.46, 173.81 50.98 C164.05 54.5, 151.03 57.25, 137.76 58.7 C124.5 60.15, 108.68 60.23, 94.24 59.69 C79.8 59.14, 63.98 57.59, 51.15 55.44 C38.31 53.29, 25.4 50.1, 17.22 46.79 C9.04 43.48, 4.34 39.87, 2.07 35.6 C-0.19 31.32, -0.23 25.5, 3.61 21.14 C7.45 16.78, 15.36 12.71, 25.09 9.43 C34.81 6.15, 47.49 2.92, 61.96 1.46 C76.42 0, 102.64 0.6, 111.89 0.69 C121.14 0.78, 117.51 1.57, 117.44 1.98 M89.46 -0.61 C103.2 -1.46, 121.29 0.76, 135.15 2.48 C149.01 4.2, 162.88 6.7, 172.62 9.72 C182.36 12.73, 188.93 16.54, 193.59 20.57 C198.25 24.6, 202.5 29.32, 200.58 33.88 C198.67 38.45, 190.3 44.25, 182.1 47.94 C173.9 51.62, 163.73 54.25, 151.37 56.01 C139.01 57.76, 122.16 58.09, 107.95 58.46 C93.75 58.82, 79.55 59.37, 66.13 58.18 C52.7 56.99, 37.52 54.3, 27.42 51.32 C17.32 48.34, 9.76 44.34, 5.53 40.31 C1.31 36.27, 0.11 31.51, 2.07 27.12 C4.04 22.72, 9.62 17.59, 17.31 13.93 C25 10.28, 35.82 7.64, 48.22 5.17 C60.61 2.7, 84.54 -0.19, 91.7 -0.91 C98.86 -1.64, 91.11 0.32, 91.18 0.81" stroke="none" stroke-width="0" fill="#ffffff"></path><path d="M63.97 2.67 C76.22 1.03, 93.19 0.63, 107.71 1.02 C122.24 1.41, 138.59 3.11, 151.12 5.02 C163.64 6.93, 174.92 9.02, 182.87 12.48 C190.81 15.94, 196.63 21.36, 198.8 25.79 C200.97 30.23, 200.26 34.97, 195.9 39.09 C191.54 43.2, 182.69 47.43, 172.63 50.49 C162.56 53.54, 148.95 55.69, 135.51 57.42 C122.06 59.14, 106.29 61.02, 91.96 60.83 C77.64 60.64, 62.22 58.79, 49.58 56.28 C36.93 53.78, 24.27 49.44, 16.08 45.81 C7.88 42.18, 2.23 38.81, 0.41 34.5 C-1.41 30.2, 0.78 24.29, 5.16 19.99 C9.54 15.68, 14.9 12, 26.68 8.67 C38.45 5.33, 65.69 1.31, 75.81 -0.03 C85.93 -1.37, 87.09 0.02, 87.39 0.64 M55.83 3.22 C67.56 1.37, 84.05 0.81, 98.62 0.93 C113.19 1.04, 130.26 2.36, 143.25 3.93 C156.24 5.5, 167.59 7.18, 176.55 10.36 C185.51 13.53, 193.71 18.51, 197.01 22.98 C200.31 27.45, 199.52 32.93, 196.34 37.17 C193.15 41.4, 186.81 44.86, 177.9 48.38 C169 51.91, 155.68 56.14, 142.92 58.32 C130.16 60.5, 115.71 61.69, 101.35 61.45 C86.99 61.21, 69.94 58.86, 56.75 56.91 C43.57 54.95, 31.38 52.83, 22.24 49.72 C13.11 46.61, 5.44 42.54, 1.95 38.25 C-1.54 33.95, -1.94 28.58, 1.33 23.95 C4.59 19.33, 12.4 13.77, 21.55 10.5 C30.69 7.23, 50.32 5.69, 56.17 4.32 C62.01 2.96, 55.97 2.29, 56.61 2.31" stroke="#1e1e1e" stroke-width="2" fill="none"></path></g><g transform="translate(855 198) rotate(0 75 12)"><text x="75" y="14" font-family="Virgil, Segoe UI Emoji" font-size="16px" fill="#1e1e1e" text-anchor="middle" style="white-space: pre;" direction="ltr">Continue development</text></g><g stroke-linecap="round"><g transform="translate(170 60) rotate(0 10 0)"><path d="M0.28 -0.78 C3.85 -0.99, 16.88 -0.67, 20.28 -0.71 M-1.03 1.42 C2.51 1.31, 15.93 0.73, 19.48 0.46" stroke="#1e1e1e" stroke-width="2" fill="none"></path></g><g transform="translate(170 60) rotate(0 10 0)"><path d="M9.64 4.65 C11.57 4.13, 13.21 3.73, 20.09 -0.23 M10.23 4.58 C14.24 2.95, 17.39 1.52, 19.85 0.09" stroke="#1e1e1e" stroke-width="2" fill="none"></path></g><g transform="translate(170 60) rotate(0 10 0)"><path d="M9.25 -2.18 C11.29 -1.3, 13.01 -0.3, 20.09 -0.23 M9.84 -2.25 C14.02 -1.27, 17.33 -0.09, 19.85 0.09" stroke="#1e1e1e" stroke-width="2" fill="none"></path></g></g><g stroke-linecap="round"><g transform="translate(370 60) rotate(0 10 0)"><path d="M-0.68 0.93 C2.79 0.86, 16.18 0.48, 19.66 0.3 M1.17 0.38 C4.55 -0.14, 15.48 -1.79, 18.53 -1.66" stroke="#1e1e1e" stroke-width="2" fill="none"></path></g><g transform="translate(370 60) rotate(0 10 0)"><path d="M10.15 2.07 C11.47 1.72, 12.99 -0.15, 17.75 -1.16 M9.49 2.15 C11.44 1.55, 12.77 0.52, 18.11 -2.16" stroke="#1e1e1e" stroke-width="2" fill="none"></path></g><g transform="translate(370 60) rotate(0 10 0)"><path d="M9.71 -4.76 C11.17 -3.71, 12.77 -4.17, 17.75 -1.16 M9.04 -4.67 C11.03 -3.89, 12.45 -3.52, 18.11 -2.16" stroke="#1e1e1e" stroke-width="2" fill="none"></path></g></g><g stroke-linecap="round"><g transform="translate(570 60) rotate(0 10 0)"><path d="M0.77 0.25 C4.13 -0.09, 15.89 -1.17, 19.04 -1.09 M-0.29 -0.67 C3.54 -0.98, 18.07 -0.03, 21.24 -0.12" stroke="#1e1e1e" stroke-width="2" fill="none"></path></g><g transform="translate(570 60) rotate(0 10 0)"><path d="M11.97 2.25 C12.77 2.06, 16.23 0.92, 21.07 -0.42 M12.05 3.48 C13.78 2.31, 16.21 2.1, 21.03 0.26" stroke="#1e1e1e" stroke-width="2" fill="none"></path></g><g transform="translate(570 60) rotate(0 10 0)"><path d="M12.14 -4.59 C12.96 -3.38, 16.39 -3.12, 21.07 -0.42 M12.22 -3.36 C13.92 -2.99, 16.3 -1.66, 21.03 0.26" stroke="#1e1e1e" stroke-width="2" fill="none"></path></g></g><g stroke-linecap="round"><g transform="translate(670 90) rotate(0 -285 35)"><path d="M-0.19 -0.44 C0.14 4.36, 95.92 24.98, 0.81 29.92 C-94.3 34.86, -475.58 22.43, -570.84 29.2 C-666.11 35.97, -571.09 63.82, -570.77 70.51 M-1.75 -1.71 C-1.41 3.79, 94.73 26.11, 0.29 31.41 C-94.15 36.71, -473.19 23.96, -568.39 30.1 C-663.6 36.23, -570.68 61.67, -570.92 68.23" stroke="#1e1e1e" stroke-width="2" fill="none"></path></g><g transform="translate(670 90) rotate(0 -285 35)"><path d="M-591.35 66.15 C-586.69 64.12, -583.85 64.95, -570.07 70.02 M-589.7 64.91 C-586.53 65.11, -581.44 66.41, -570.92 68.74" stroke="#1e1e1e" stroke-width="2" fill="none"></path></g><g transform="translate(670 90) rotate(0 -285 35)"><path d="M-584.54 54.29 C-581.16 54.68, -579.71 57.94, -570.07 70.02 M-582.88 53.05 C-581.3 56.24, -577.9 60.46, -570.92 68.74" stroke="#1e1e1e" stroke-width="2" fill="none"></path></g></g><g stroke-linecap="round"><g transform="translate(190 210) rotate(0 10 0)"><path d="M-1.15 -1.12 C2.41 -0.8, 16.49 0.73, 20.19 0.93 M0.45 0.9 C3.97 0.99, 15.95 -0.8, 19.35 -0.71" stroke="#1e1e1e" stroke-width="2" fill="none"></path></g><g transform="translate(190 210) rotate(0 10 0)"><path d="M9.26 3.49 C12.88 3.47, 14.03 1.26, 18.38 -0.61 M9.84 3.02 C12.99 1.95, 15.38 0.81, 19.55 -0.58" stroke="#1e1e1e" stroke-width="2" fill="none"></path></g><g transform="translate(190 210) rotate(0 10 0)"><path d="M8.81 -3.34 C12.46 -1.96, 13.71 -2.77, 18.38 -0.61 M9.38 -3.8 C12.63 -3.05, 15.14 -2.36, 19.55 -0.58" stroke="#1e1e1e" stroke-width="2" fill="none"></path></g></g><g transform="translate(195 192) rotate(0 20 10)"><text x="20" y="13" font-family="Virgil, Segoe UI Emoji" font-size="14px" fill="#1e1e1e" text-anchor="middle" style="white-space: pre;" direction="ltr">Yes</text></g><g stroke-linecap="round"><g transform="translate(100 260) rotate(0 305 15)"><path d="M-0.66 -0.09 C-0.64 8.43, -102.84 42.29, -1.05 50.54 C100.73 58.79, 508.25 61.1, 610.05 49.39 C711.84 37.68, 609.63 -8.17, 609.72 -19.72 M1.2 -1.19 C1.67 7.04, -100.24 40.11, 1.11 48.7 C102.46 57.3, 507.86 61.59, 609.31 50.39 C710.76 39.2, 609.8 -6.83, 609.82 -18.46" stroke="#1e1e1e" stroke-width="2" fill="none"></path></g><g transform="translate(100 260) rotate(0 305 15)"><path d="M637.24 -8.4 C632.71 -9.14, 625.15 -12.11, 610.29 -17.49 M637.38 -6.74 C628.48 -11.43, 621.08 -14.36, 609.08 -18.69" stroke="#1e1e1e" stroke-width="2" fill="none"></path></g><g transform="translate(100 260) rotate(0 305 15)"><path d="M623.2 6.56 C621.62 2.84, 616.93 -3.2, 610.29 -17.49 M623.33 8.23 C618.94 -1.01, 615.9 -8.58, 609.08 -18.69" stroke="#1e1e1e" stroke-width="2" fill="none"></path></g></g><g transform="translate(115 292) rotate(0 20 10)"><text x="20" y="13" font-family="Virgil, Segoe UI Emoji" font-size="14px" fill="#1e1e1e" text-anchor="middle" style="white-space: pre;" direction="ltr">No</text></g><g stroke-linecap="round"><g transform="translate(410 210) rotate(0 10 0)"><path d="M-0.17 0.93 C3.37 1, 16.9 0.13, 20.11 0.16 M-1.72 0.38 C1.77 0.68, 15.35 1.95, 19.21 1.78" stroke="#1e1e1e" stroke-width="2" fill="none"></path></g><g transform="translate(410 210) rotate(0 10 0)"><path d="M10.49 5 C11.8 3.49, 14.55 3.68, 18.66 2.66 M10.06 5.13 C13.26 4.16, 16.84 2.85, 19.26 1.42" stroke="#1e1e1e" stroke-width="2" fill="none"></path></g><g transform="translate(410 210) rotate(0 10 0)"><path d="M10.7 -1.84 C11.95 -1.95, 14.66 -0.36, 18.66 2.66 M10.27 -1.71 C13.43 -0.26, 16.95 0.85, 19.26 1.42" stroke="#1e1e1e" stroke-width="2" fill="none"></path></g></g><g stroke-linecap="round"><g transform="translate(590 210) rotate(0 10 0)"><path d="M-1.13 0.25 C2.31 0.45, 15.81 1.28, 19.48 1.17 M0.48 -0.67 C3.81 -0.77, 14.9 -0.57, 18.27 -0.34" stroke="#1e1e1e" stroke-width="2" fill="none"></path></g><g transform="translate(590 210) rotate(0 10 0)"><path d="M8.95 2.27 C11.66 2.95, 12.29 1.71, 18.31 -0.27 M8.26 2.55 C12.25 1.87, 15.87 0.25, 18.52 -0.83" stroke="#1e1e1e" stroke-width="2" fill="none"></path></g><g transform="translate(590 210) rotate(0 10 0)"><path d="M9.22 -4.57 C11.88 -2.49, 12.46 -2.32, 18.31 -0.27 M8.53 -4.28 C12.38 -2.4, 15.9 -1.46, 18.52 -0.83" stroke="#1e1e1e" stroke-width="2" fill="none"></path></g></g><g transform="translate(596 192) rotate(0 20 10)"><text x="20" y="13" font-family="Virgil, Segoe UI Emoji" font-size="14px" fill="#1e1e1e" text-anchor="middle" style="white-space: pre;" direction="ltr">Yes</text></g><g stroke-linecap="round"><g transform="translate(810 210) rotate(0 10 0)"><path d="M-0.64 -1.12 C2.99 -1.06, 17.21 0.78, 20.64 0.78 M1.22 0.9 C4.85 0.6, 17.04 -0.72, 20.03 -0.93" stroke="#1e1e1e" stroke-width="2" fill="none"></path></g><g transform="translate(810 210) rotate(0 10 0)"><path d="M10.05 3.87 C13.47 2.46, 13.77 2.08, 19.28 -0.46 M10.85 3.45 C13.27 2.46, 14.94 1.48, 19.71 -0.66" stroke="#1e1e1e" stroke-width="2" fill="none"></path></g><g transform="translate(810 210) rotate(0 10 0)"><path d="M9.42 -2.94 C13 -2.96, 13.42 -1.94, 19.28 -0.46 M10.23 -3.36 C12.85 -2.88, 14.65 -2.38, 19.71 -0.66" stroke="#1e1e1e" stroke-width="2" fill="none"></path></g></g><g stroke-linecap="round"><g transform="translate(510 160) rotate(0 -115 -75)"><path d="M0.8 0.59 C0.99 -24.61, 38.58 -125.47, 0.02 -150.61 C-38.54 -175.74, -192.34 -153.63, -230.56 -150.22 C-268.78 -146.82, -229.34 -133.42, -229.31 -130.17 M-0.24 -0.14 C-0.1 -25.25, 37.64 -124.58, -0.92 -149.39 C-39.48 -174.2, -193.66 -152.4, -231.62 -149.02 C-269.59 -145.65, -229.23 -132.21, -228.7 -129.16" stroke="#1e1e1e" stroke-width="2" fill="none"></path></g><g transform="translate(510 160) rotate(0 -115 -75)"><path d="M-237.99 -131.2 C-236.98 -131.33, -234.65 -129.86, -228.84 -129.5 M-238.44 -131.46 C-236.07 -130.72, -234.21 -130.56, -228.81 -129.02" stroke="#1e1e1e" stroke-width="2" fill="none"></path></g><g transform="translate(510 160) rotate(0 -115 -75)"><path d="M-234.38 -137.01 C-234.08 -135.92, -232.49 -133.27, -228.84 -129.5 M-234.83 -137.27 C-233.34 -135.15, -232.34 -133.61, -228.81 -129.02" stroke="#1e1e1e" stroke-width="2" fill="none"></path></g></g><g transform="translate(484 24) rotate(0 20 10)"><text x="20" y="13" font-family="Virgil, Segoe UI Emoji" font-size="14px" fill="#1e1e1e" text-anchor="middle" style="white-space: pre;" direction="ltr">No</text></g></svg>